<svg width="148" height="145" viewBox="0 0 148 145" fill="none" xmlns="http://www.w3.org/2000/svg">
<g id="ph:user-duotone">
<g id="Group">
<path id="Vector" opacity="0.2" d="M111 54.375C111 61.5446 108.83 68.5531 104.764 74.5144C100.699 80.4757 94.9202 85.122 88.1593 87.8656C81.3984 90.6093 73.959 91.3272 66.7817 89.9285C59.6044 88.5298 53.0116 85.0773 47.8371 80.0076C42.6625 74.938 39.1386 68.4788 37.711 61.447C36.2833 54.4152 37.016 47.1265 39.8165 40.5027C42.6169 33.8789 47.3593 28.2174 53.4439 24.2342C59.5285 20.251 66.6821 18.125 74 18.125C83.813 18.125 93.2241 21.9442 100.163 28.7424C107.102 35.5406 111 44.7609 111 54.375Z" fill="#6E03F9"/>
<path id="Vector_2" d="M133.501 120.078C124.696 105.165 111.127 94.4709 95.2924 89.4016C103.125 84.8333 109.21 77.8722 112.614 69.5875C116.018 61.3028 116.552 52.1524 114.134 43.5417C111.716 34.9309 106.48 27.3359 99.2293 21.9229C91.979 16.5099 83.1155 13.5783 74 13.5783C64.8846 13.5783 56.0211 16.5099 48.7708 21.9229C41.5205 27.3359 36.2843 34.9309 33.8663 43.5417C31.4482 52.1524 31.9821 61.3028 35.3858 69.5875C38.7896 77.8722 44.8751 84.8333 52.7077 89.4016C36.8729 94.4652 23.3043 105.159 14.4994 120.078C14.1765 120.594 13.9624 121.168 13.8695 121.766C13.7767 122.364 13.8071 122.975 13.959 123.561C14.1109 124.148 14.3811 124.699 14.7537 125.181C15.1264 125.664 15.5939 126.068 16.1287 126.371C16.6635 126.673 17.2548 126.868 17.8676 126.943C18.4804 127.018 19.1024 126.973 19.6969 126.808C20.2913 126.644 20.8462 126.365 21.3287 125.987C21.8113 125.61 22.2117 125.141 22.5064 124.609C33.3983 106.167 52.6499 95.1562 74 95.1562C95.3502 95.1562 114.602 106.167 125.494 124.609C125.788 125.141 126.189 125.61 126.671 125.987C127.154 126.365 127.709 126.644 128.303 126.808C128.898 126.973 129.52 127.018 130.132 126.943C130.745 126.868 131.337 126.673 131.871 126.371C132.406 126.068 132.874 125.664 133.246 125.181C133.619 124.699 133.889 124.148 134.041 123.561C134.193 122.975 134.223 122.364 134.131 121.766C134.038 121.168 133.824 120.594 133.501 120.078ZM41.625 54.375C41.625 48.1016 43.5238 41.9691 47.0812 36.753C50.6386 31.5369 55.6949 27.4714 61.6107 25.0707C67.5264 22.67 74.036 22.0418 80.3161 23.2657C86.5962 24.4896 92.3649 27.5105 96.8926 31.9465C101.42 36.3824 104.504 42.0341 105.753 48.187C107.002 54.3398 106.361 60.7174 103.911 66.5132C101.46 72.3091 97.3107 77.2629 91.9866 80.7482C86.6626 84.2335 80.4032 86.0938 74 86.0938C65.4165 86.0848 57.1871 82.7401 51.1176 76.7936C45.0481 70.8471 41.6342 62.7846 41.625 54.375Z" fill="#6E03F9"/>
</g>
</g>
</svg>
